# ProBuilder 5.0.3
# https://unity3d.com/unity/features/worldbuilding/probuilder
# 16.05.2023 11:12:03

mtllib ./Tree.mtl
o Tree

g Cube
v -296.5292 120.3993 327.5327
v -296.76 120.3847 327.5327
v -296.4428 120.8471 327.5327
v -296.9663 120.5768 327.5327
v -296.9067 121.0139 327.5327
v -296.6429 121.0472 327.5327
v -298.1339 121.119 327.3336
v -298.1989 120.3859 327.4345
v -298.1526 121.0976 327.0327
v -298.1571 120.212 326.5327
v -298.2627 121.212 326.1585
v -296.4265 120.3803 326.4848
v -296.5005 121.2726 326.4482
v -297.0526 121.4685 326.1751
v -296.3296 120.3984 326.7322
v -296.3296 120.3671 327.1917
v -296.3296 120.8721 326.6756
v -296.3296 120.553 327.3776
v -296.3296 121.0125 327.3463
v -296.3296 121.0691 326.8725
v -297.2598 121.6312 326.8305
v -296.9866 121.5211 327.0139
v -296.4947 121.2897 326.8136
v -296.4937 121.2892 327.2472
v -296.9459 121.3235 327.4089
v -297.0647 121.4808 327.2342
v -296.692 121.3041 327.4304
v -296.5296 120.212 326.5327
v -297.0796 120.212 326.5327
v -296.4496 120.212 327.3727
v -297.0796 120.212 327.3326
v -297.232 121.0178 327.5327
v -297.1309 120.6053 327.5327
v -297.2405 121.0187 327.5327
v -297.3557 120.4047 327.5327
v -297.3344 120.4039 327.5327
v -297.3898 120.8288 327.5327
v -297.4041 121.4967 327.0225
v -297.215 121.212 327.3854
v -297.5392 121.212 327.0327
v -297.5107 121.212 327.3336
v -297.4605 120.212 327.3513
v -297.4918 120.212 326.5327
v -297.5974 121.212 326.1585
v -297.6691 121.061 327.5327
v -297.6303 120.5992 327.5327
v -297.7209 121.0816 327.5327
v -297.8134 120.407 327.5327
v -297.7531 120.4049 327.5327
v -297.8483 120.9416 327.5327
v -297.6311 121.2344 327.3909
v -297.9643 121.3122 327.3336
v -297.9831 121.2908 327.0327
v -297.5343 120.212 327.3329
v -297.8694 120.212 327.351
v -297.4918 121.2928 325.7311
v -297.5974 121.9427 325.5927
v -297.9001 121.2132 325.7803
v -298.0056 121.9427 325.5927
v -298.0056 121.212 326.1585
v -298.0593 120.9776 327.5327
v -298.0136 120.6073 327.5327
v -297.9966 121.0837 327.5327
v -298.1891 120.4111 327.5327
v -297.991 120.4088 327.5327
v -298.0503 120.7396 327.5327
v -298.0205 121.2482 327.3618
v -297.9426 120.212 327.3329
v -297.9001 120.212 326.5327
v -298.151 120.212 327.3416
v -298.1996 120.212 327.3329
v -297.3734 121.5856 326.847
v -296.4095 120.3829 327.3687
v -297.0585 120.4367 327.4926
v -296.5202 121.1 327.4178
v -296.4136 121.1259 326.7025
v -297.5546 120.3668 327.4565
v -297.4883 121.071 327.4645
v -297.0749 121.1418 327.4649
v -297.9886 120.3302 327.4564
v -297.9227 121.1123 327.4587
v -298.1351 120.3047 327.4104
v -297.2177 121.5431 326.9896

vt -0.1995981 0.1873271
vt -0.4304019 0.1726729
vt -0.1131477 0.635083
vt -0.6366943 0.3648084
vt -0.5770463 0.8018372
vt -0.3133058 0.8351916
vt 0.6995271 0.7260339
vt 0.7967008 -0.01048459
vt 0.3980581 0.7045261
vt -0.2138923 0.1105865
vt -0.5977908 1.112448
vt 0.2831964 0.9978401
vt 0.1080372 0.1683092
vt 0.1905951 1.060609
vt 0.806529 1.256477
vt -0.1995361 0.1863862
vt -0.6590425 0.1550352
vt -0.1429398 0.6601136
vt -0.8449648 0.3409575
vt -0.8136138 0.8004639
vt -0.3398865 0.8570602
vt 1.401444 0.3995354
vt 1.147811 -0.2596757
vt 0.5627355 0.01496224
vt 1.1518 0.481228
vt 0.6081216 0.2809045
vt 0.6070344 0.7145264
vt 0.6162693 -0.09265729
vt 0.7350641 -0.3277994
vt 0.3623294 -0.06376129
vt -0.2 0
vt -0.75 0
vt -0.12 0.84
vt -0.75 0.8
vt -0.9023817 0.8057477
vt -0.8012773 0.3933149
vt -0.9109237 0.8066812
vt -1.026067 0.1927246
vt -1.004825 0.1918937
vt -1.060154 0.61676
vt -0.3664525 0.8108069
vt 0.02876471 0.5069814
vt -0.4503312 0.5069757
vt 0.8853184 0.8527437
vt 1.181031 0.8008884
vt 1.209515 0.4999982
vt -1.130902 0.8186665
vt 0.75 -1.080969E-06
vt 0.7229633 1.306349
vt 1.162201 -9.013195E-06
vt 0.7783937 1.256328
vt 1.316144 0.9848667
vt 1.140324 -0.07352452
vt -1.33952 0.8489555
vt -1.300656 0.3871501
vt -1.391272 0.8695664
vt -1.483757 0.1950019
vt -1.423438 0.1928449
vt -1.518716 0.7296035
vt 1.509726 0.9120535
vt 1.85189 0.8545045
vt 1.864956 0.5525517
vt -1.204672 0.800281
vt -1.162201 0
vt -1.539754 0.818394
vt 1.097635 1.249161
vt 1.192324 1.91525
vt 1.508463 1.167571
vt 1.267761 1.910214
vt 1.676025 1.910214
vt 1.570465 1.156995
vt 1.267761 -0.374115
vt 1.209534 0.5
vt 1.676025 -0.374115
vt 1.36571 0.5696526
vt 1.816622 0.5696526
vt 1.82502 -0.3082575
vt -1.729687 0.7655571
vt -1.683976 0.3952303
vt -1.667019 0.8716364
vt -1.859462 0.1990482
vt -1.661413 0.1967591
vt -1.720628 0.5275581
vt 0.8291458 -0.3362681
vt 0.8008705 -0.5081625
vt 0.4999802 -0.5366437
vt -1.612936 0.800281
vt -1.570465 0
vt -1.821344 0.808975
vt 1.570465 -7.145702E-06
vt 1.676025 1.067683
vt 1.827515 -7.145702E-06
vt 1.933075 1.067683
vt 1.676025 -0.282798
vt 1.653503 0.5948634
vt 1.933075 -0.282798
vt 0.09913866 -0.2984772
vt 0.05946406 -0.5524388
vt -0.81613 -0.4020775
vt -0.3208663 0.2240508
vt 0.009564432 1.244796
vt 0.4494951 1.327259
vt 0.007021976 1.255714
vt 0.5505257 2.003112
vt 0.44692 1.338352
vt 1.570465 1.252332
vt 1.161863 -0.01668539
vt 1.181178 1.328734
vt 1.588138 1.229637
vt -1.267761 1.019709
vt -1.676025 1.019709
vt -1.267761 1.94383
vt -1.676025 1.94383
vt 0.06567798 1.3135
vt 0.4005028 0.294188
vt -0.4814101 2.058278
vt 0.441253 0.3113432
vt -0.2807604 1.334597
vt -0.4311359 2.080163
vt -0.2520522 0.7754029
vt -0.4825349 0.7563537
vt -0.1641278 0.531894
vt -0.791142 0.485148
vt -0.9619461 0.6769075
vt -0.9964803 0.2221917
vt -0.7458783 0.844859
vt -0.7746192 0.3945686
vt 0.1317949 0.1929534
vt 0.1096264 0.6529942
vt -0.1414214 -0.006814821
vt -0.08485282 0.8349352
vt 0.08019897 0.1724657
vt 0.141484 1.066479
vt -0.1855021 0.1905774
vt -0.1328863 0.662107
vt -0.8113954 0.6494679
vt -0.3389597 0.7159906
vt -0.7246854 0.9747285
vt -0.2923184 0.992454
vt 1.032816 0.8425513
vt 1.011558 0.8425513
vt 0.7494268 0.5722805
vt 1.130037 0.5760751
vt -0.5266439 0.3705728
vt -0.2632292 0.4064094
vt -0.5719675 0.7032219
vt -0.3172744 0.6819959
vt 0.9931597 0.3291124
vt 0.9845668 0.3291124
vt 1.282686 0.07190306
vt 0.9887234 0.09170702
vt 1.489777 0.8301577
vt 1.429421 0.8301577
vt 1.203902 0.5579815
vt 1.53877 0.5631371
vt 1.614275 0.6933162
vt 1.558569 0.6933162
vt 1.925784 0.4586395
vt 1.587398 0.4803349
vt 1.861638 0.8377954
vt 1.663576 0.8377954
vt 1.612828 0.5578321
vt 1.821222 0.5623462
vt -0.4999973 0.6033272
vt -0.4617071 -0.1385866
vt -0.2922329 0.2193341
vt -0.2552828 -0.1004511
vt 0.2535868 -0.01817603
vt 0.2925596 -0.1350577
vt 0.4948481 0.02079544
vt 0.4022042 0.1679581
vt -0.2316201 0.2767323
vt -0.4085053 0.4719647
vt -0.4890133 0.1384598
vt -0.8032838 0.5230469
vt 0.4991379 0.4393614
vt 1.040302 0.1978253
vt 0.6918014 0.6290267
vt 1.101429 0.4269447
vt 0.5874164 -0.04030566
vt 1.426945 0.3424725
vt 0.5890511 0.3255242
vt 1.132611 0.5261647
vt 0.2 -3.002492E-10
vt 0.096843 0.1749898
vt 1.337665 0.8136552
vt 1.460165 0.8710095
vt 1.816622 0.5127238
vt 1.36571 0.5127238
vt 0.8008722 -0.2511216
vt 0.4999819 -0.2796027
vt 0.5959096 0.8223437
vt 0.9996253 0.110185
vt 0.8982572 -0.0638028
vt 0.09684996 -0.0638028
vt -1.827515 0
vt -1.869986 0.800281
vt 0.2536439 0.8452517
vt 0.3759709 0.8628214
vt 0.7352694 0.1316552
vt 0.1331431 0.1492857
vt 0.4185019 0.3703988
vt -0.4575502 0.3703987
vt 0.2443023 0.784044
vt 0.4173409 0.6855935
vt -0.9192737 0.2600425
vt -0.7162591 0.2432987
vt -0.7435505 0.06991449
vt -0.8109612 0.04951803
vt -0.7902437 0.22381
vt -0.5961089 0.2076952
vt -0.5904627 0.2605157
vt -0.784497 0.2777985
vt -0.757038 0.4639534
vt -0.6658493 0.510543
vt -0.7079763 0.3271501
vt -0.9109026 0.3449336
vt -0.5299965 0.532703
vt -0.470149 0.8028066
vt -0.171001 0.7402629
vt -0.2619991 0.3519037
vt -0.5630162 0.4047226
vt -0.4655437 0.5469477
vt -0.5917208 0.6082053
vt -0.6855977 0.4635817
vt -0.7561419 0.6376314
vt -0.9433482 0.5327529
vt -0.8657405 0.3617359
vt -1.16555 0.3293
vt -1.212159 0.6013819
vt -0.9131755 0.6407132
vt -0.9004335 0.3643522
vt -0.8095694 0.413031
vt -0.6439999 0.4732446
vt -0.6420584 0.1848934
vt -0.6556789 0.1903734
vt -0.6551682 0.4787307
vt -0.4573305 0.378923
vt -0.4848614 0.3214131
vt -0.6805395 0.4253911
vt -0.5575616 0.6500888
vt -0.6176035 0.7564102
vt -0.7560538 0.5409012
vt -0.8874244 0.7734048
vt -0.8138465 0.7921449
vt -0.6663093 0.569549
vt -0.8328056 0.5119473
vt -0.1889405 0.1189333
vt 0.06430652 -0.1056117
vt 0.07648521 0.09715538
vt -0.3187525 0.8483569
vt -0.1301034 0.9084802
vt -0.1340519 0.6398824
vt -0.1415208 0.6310035
vt -0.1563225 0.8992223
vt 0.1076606 1.054343
vt 0.09128471 1.017685
vt -0.1662987 0.8521541
vt -0.2740434 1.036909
vt -0.2286507 1.029049
vt -0.1423102 0.8333743
vt -0.3283186 0.7655202
vt -0.9382415 0.6406431
vt -1.008658 0.837891
vt -0.777549 0.8851442
vt -0.7027891 0.6380108
vt -0.9352658 0.5980276
vt -0.9879732 0.8485134
vt -1.508339 0.5254499
vt -1.416082 0.2866822
vt -1.685697 0.3279891
vt -1.6333 0.5983833
vt -1.365269 0.5478119
vt -1.324093 0.3530352
vt -0.9753999 0.6700053
vt -0.9652219 0.8688264
vt -0.8993733 0.6700071
vt -1.596177 0.6032336
vt -1.402908 0.6139968
vt -1.332776 0.3530741
vt -0.802022 0.3907553
vt -0.9135268 0.6368564
vt -0.6567842 0.5837469
vt -0.8260344 -0.1259266
vt -1.078488 -0.055184
vt -1.111548 0.1357292
vt 1.53464 0.4960464
vt 1.439289 0.6647152
vt 1.647947 0.5699193
vt -1.506995 0.6053181
vt -1.394983 0.4053737
vt -1.588166 0.3931487
vt -0.9088311 0.238438
vt -0.751273 0.3792628
vt -0.5835025 0.2339972
vt -0.4649245 0.3701986
vt -0.6395046 0.5072052
vt -0.5173669 0.7018
vt -0.3342156 0.5370302
vt -0.4412918 0.3337584
vt -0.5984573 0.4123431
vt -0.7207094 0.1921769
vt -0.568786 0.103883
vt -0.7114636 -0.05199931
vt -1.513419 0.5872269
vt -1.629324 0.7480197
vt -1.391484 0.8495889
vt -1.409394 0.8506969
vt -1.646003 0.7462921
vt -1.845375 0.8593715
vt 0 0
vt -1.866602 0.8069606
vt -1.662673 0.702324
vt -1.611259 0.5329431
vt -1.576275 0.3853768
vt -1.646358 0.5479243
vt -1.504756 0.4092255
vt -1.803774 0.3301677
vt -1.661685 0.4788007
vt -1.593472 0.2904882
vt -1.138982 0.3215912
vt -1.232424 0.4987448
vt -1.017676 0.4669059
vt -1.069523 0.1215782
vt -1.283788 0.1565198
vt -1.357693 0.3843886
vt -1.47802 0.4163101
vt -1.416047 0.1849111
vt -1.528666 0.3422531
vt -1.605953 0.3407636
vt -1.499508 0.179181
vt -1.628627 0.01915236
vt -1.444793 0.741751
vt -1.406811 0.8518752
vt -1.230081 0.9755985
vt -1.164967 0.9377967
vt -1.344389 0.818012
vt -1.394485 0.9114645
vt -1.447237 0.86672
vt -1.39556 0.7741326
vt -1.482683 0.668501
vt -1.700006 0.6409284
vt -1.622899 0.7540787
vt -1.650594 0.6409284
vt -0.4002716 0.6569834
vt -0.1897315 0.2745053
vt -0.1584975 0.6213313
vt 0.8245568 -0.03760945
vt 0.6328316 -0.07259715
vt 0.4935504 0.1876187
vt 0.8255116 0.4396822
vt 0.9826959 0.1898731
vt 0.7505899 0.2146615
vt 0.7060416 -0.1898906
vt 0.9378279 -0.2175096
vt 0.9831932 -0.3986131
vt 0.4696906 -0.5916307
vt 0.4555222 -0.4054701
vt 0.5917478 -0.572276
vt 0.8067067 -0.3660076
vt 0.6599705 -0.2083685
vt 0.8514411 -0.1720136

vn 0 0 1
vn -0.9938685 0.09578067 0.05524114
vn -0.9912817 -0.06093495 0.1168225
vn 0.4432741 7.257239E-09 -0.8963861
vn 1 0 0
vn 0.3794513 0.918871 -0.108133
vn 0.4257177 0.904856 -1.020848E-07
vn 9.457235E-08 0.7430802 0.6692024
vn 0 -1 0
vn 0 0 -1
vn -0.6897655 0.3497847 0.6339356
vn -1.844686E-05 1 1.746285E-06
vn 5.065403E-06 -0.2736736 -0.9618226
vn 0.1824611 -0.3275607 -0.9270447
vn 0.2404442 0.9670372 -0.08381927
vn -0.07446776 -0.2192657 -0.9728191
vn 0 -0.2490533 -0.9684898
vn 0.1740441 0.9803476 -0.09288263
vn -0.7516842 0.6595231 8.157042E-06
vn 0 -0.3503966 -0.9366014
vn 0 0.9959593 -0.08980603
vn -0.739673 0.6489846 0.1780532
vn 0.9415997 0.2005839 0.270474
vn 0.9390974 0.2104014 0.2717117
vn 0 -0.6007318 -0.7994507
vn 0.01935758 -0.5955622 -0.8030759
vn 0 0.6122532 0.7906618
vn -0.9486155 -0.193736 -0.2501901
vn -0.9390162 -0.2065753 -0.2749093
vn 0.04056568 -0.638909 0.768212
vn -0.001691177 -0.6796463 0.7301971
vn -0.04394803 -0.7203835 0.6921821
vn 0.9027156 -0.1742918 0.3933534
vn 0.7441884 -0.05955892 0.6010147
vn 0.5856611 0.05517394 0.808676
vn 0.7062853 -0.7062854 -0.04818806
vn 0.7265877 -0.6837087 -0.05966022
vn 0.7468899 -0.661132 -0.07113238
vn 0.9278852 0.0618748 -0.3676963
vn 0.824971 -0.01009759 -0.5273225
vn 0.7220567 -0.08206997 -0.6869488
vn 0.8484626 0.5255183 0.06278381
vn 0.8246503 0.562199 0.03080306
vn 0.8008381 0.5988797 -0.0011777
vn 0.02892541 0.7394332 -0.6726083
vn 0.03198305 0.02048808 0.02109265
vn 0.03504069 -0.698457 0.7147936
vn -0.04624787 0.365692 0.9295862
vn -0.04875063 0.3633059 0.9303868
vn -0.05125339 0.3609199 0.9311874
vn 0.08408871 0.7695352 0.6330439
vn -0.02665743 0.6877702 0.7082738
vn -0.1374036 0.6060053 0.7835037
vn 0.02622296 0.7333168 -0.6793813
vn 0.03245568 0.01800072 0.01816916
vn 0.03868841 -0.6973153 0.7157196
vn 0.3139225 0.7882315 0.5292862
vn 0.1639698 0.7096525 0.6524413
vn 0.01401702 0.6310736 0.7755964
vn 0.008244612 0.7133276 -0.7007822
vn 0.01882993 0.002431244 0.002175152
vn 0.02941524 -0.7084652 0.7051325
vn -0.7721798 0.1534027 0.6166084
vn -0.5956259 0.03919286 0.7607286
vn -0.419072 -0.07501695 0.9048487
vn 0 0 0
vn 0.7107325 -0.4198815 -0.5644103
vn 0.01975796 0.0211059 0.007595748
vn -0.6712165 0.4620933 0.5796018
vn -0.3101603 0.5919126 0.7439355
vn -0.3546433 0.6003681 0.7147622
vn -0.3991263 0.6088236 0.6855889
vn 0.3081397 0.9154246 0.2589357
vn 0.300063 0.9162864 0.2650989
vn 0.2919863 0.9171482 0.2712622
vn 0.4061986 0.9124699 -0.04900589
vn 0.4060351 0.9123055 -0.05308054
vn 0.4058716 0.9121412 -0.05715519
vn 0.1747754 0.9844693 -0.01654524
vn -0.9979844 0.03495757 -0.05296311
vn -0.3926678 0.8558553 -0.336636
vn -0.9010584 0.4295244 0.06002222
vn 0.7875636 -0.171016 0.592028
vn 0.886541 -0.1983232 0.4179868
vn 0.8188025 -0.4059326 0.4059325
vn 0.7310202 -0.3734087 0.5711176
vn -0.2047828 -0.5548979 0.8063202
vn -0.1602444 -0.1720514 0.9719672
vn -0.04296121 -0.2480375 0.9677973
vn 0.1491659 -0.1671611 0.9745803
vn 0.169676 -0.5821486 0.7951812
vn 0.4801164 0.4802352 0.7340724
vn 0.4930279 0.480269 0.7254414
vn 0.5017433 0.5395679 0.6761066
vn 0.6149144 0.4789534 0.6264854
vn 0.5289587 0.3990873 0.7489541
vn 0.7859842 -0.5576716 -0.2668919
vn 0.8859624 0.3279259 -0.3279258
vn 0.9366472 0.3240539 -0.1329707
vn 0.8858296 0.4626405 -0.03563439
vn 0.808582 0.547094 -0.2165257
vn -0.1615032 -0.619669 0.7680671
vn -0.2466143 -0.3736433 0.8941879
vn 0.2417874 -0.2304023 0.9425782
vn 0.1363413 -0.6068348 0.783047
vn -0.1882918 -0.6274462 0.7555511
vn 0.309278 0.3721072 0.8751476
vn -0.2261126 0.1776678 0.9577616
vn -0.060459 0.6739252 0.7363216
vn 0.421122 0.6521313 0.6303817
vn 0.2601356 0.5763589 0.7746871
vn 0.005695976 0.4738736 0.8805745
vn -0.1014929 0.3581169 0.9281442
vn -0.2604332 0.4484241 0.8550382
vn -0.1405835 0.6059114 0.7830119
vn -0.02297746 -0.6779993 0.7347034
vn -0.009944876 -0.6990236 0.7150294
vn -0.03322465 -0.7280972 0.6846682
vn -0.1610059 -0.7422333 0.6505128
vn 0.0720993 0.4230711 0.9032234
vn -0.2953018 0.268889 0.9167854
vn -0.2370125 0.479313 0.845035
vn -0.1443233 0.5030549 0.8521188
vn -0.07867482 0.5401436 0.8378873
vn -0.2820552 -0.5403634 0.7927499
vn -0.3260179 -0.4946393 0.8056329
vn -0.3005098 -0.4800909 0.82414
vn -0.1440879 -0.5738955 0.806153
vn -0.8063046 0.1256269 0.5780058
vn -0.1699231 0.9243513 0.3416149
vn 0.07129402 0.9763932 0.2038958
vn 0.03323158 0.8780289 0.4774527
vn -0.2523843 0.81668 0.5189759
vn -0.1470119 0.8924677 0.4264844

usemtl Lit
f 3/3/1 2/2/1 1/1/1
f 6/6/1 5/5/1 4/4/1
f 9/9/2 8/8/2 7/7/2
f 9/12/3 11/11/3 10/10/3
f 14/15/4 13/14/4 12/13/4
f 17/18/5 16/17/5 15/16/5
f 20/21/5 19/20/5 18/19/5
f 13/24/6 14/23/6 21/22/6
f 24/27/7 23/26/7 22/25/7
f 27/30/8 26/29/8 25/28/8
f 30/33/9 29/32/9 28/31/9
f 30/33/9 31/34/9 29/32/9
f 34/37/1 33/36/1 32/35/1
f 37/40/10 36/39/10 35/38/10
f 40/43/11 39/42/11 38/41/11
f 40/46/12 41/45/12 39/44/12
f 42/47/9 29/32/9 31/34/9
f 43/50/13 14/49/13 29/48/13
f 43/53/14 44/52/14 14/51/14
f 47/56/1 46/55/1 45/54/1
f 50/59/10 49/58/10 48/57/10
f 53/62/15 52/61/15 51/60/15
f 55/65/9 43/64/9 54/63/9
f 58/68/16 57/67/16 56/66/16
f 58/71/17 59/70/17 57/69/17
f 60/74/12 40/73/12 44/72/12
f 60/77/18 53/76/18 40/75/18
f 63/80/10 62/79/10 61/78/10
f 66/83/10 65/82/10 64/81/10
f 9/86/19 7/85/19 67/84/19
f 70/89/9 69/88/9 68/87/9
f 10/92/20 60/91/20 69/90/20
f 10/92/20 11/93/20 60/91/20
f 11/96/21 53/95/21 60/94/21
f 11/99/22 9/98/22 53/97/22
f 56/102/23 44/101/23 43/100/23
f 56/105/24 57/104/24 44/103/24
f 58/106/25 43/50/25 69/90/25
f 58/109/26 56/108/26 43/107/26
f 57/112/27 60/111/27 44/110/27
f 57/112/27 59/113/27 60/111/27
f 59/116/28 69/115/28 60/114/28
f 59/119/29 58/118/29 69/117/29
f 30/208/83 73/207/83 1/206/83
f 16/211/84 73/210/84 30/209/84
f 18/214/85 73/213/85 16/212/85
f 1/217/86 73/216/86 18/215/86
f 2/220/87 74/219/87 31/218/87
f 4/223/88 74/222/88 2/221/88
f 33/226/89 74/225/89 4/224/89
f 35/229/90 74/228/90 33/227/90
f 31/232/91 74/231/91 35/230/91
f 3/235/92 75/234/92 6/233/92
f 19/238/93 75/237/93 3/236/93
f 24/241/94 75/240/94 19/239/94
f 27/244/95 75/243/95 24/242/95
f 6/247/96 75/246/96 27/245/96
f 15/248/97 28/249/97 12/250/97
f 17/253/98 76/252/98 20/251/98
f 13/256/99 76/255/99 17/254/99
f 23/259/100 76/258/100 13/257/100
f 20/262/101 76/261/101 23/260/101
f 36/265/102 77/264/102 42/263/102
f 46/268/103 77/267/103 36/266/103
f 48/271/104 77/270/104 46/269/104
f 54/274/105 77/273/105 48/272/105
f 42/277/106 77/276/106 54/275/106
f 37/280/107 78/279/107 45/278/107
f 34/283/108 78/282/108 37/281/108
f 41/286/109 78/285/109 34/284/109
f 51/289/110 78/288/110 41/287/110
f 45/292/111 78/291/111 51/290/111
f 5/295/112 79/294/112 32/293/112
f 25/298/113 79/297/113 5/296/113
f 39/301/114 79/300/114 25/299/114
f 32/304/115 79/303/115 39/302/115
f 49/307/116 80/306/116 55/305/116
f 64/310/117 80/309/117 49/308/117
f 64/311/66 80/311/66 64/311/66
f 68/314/118 80/313/118 64/312/118
f 55/317/119 80/316/119 68/315/119
f 50/320/120 81/319/120 61/318/120
f 47/323/121 81/322/121 50/321/121
f 52/326/122 81/325/122 47/324/122
f 67/329/123 81/328/123 52/327/123
f 61/332/124 81/331/124 67/330/124
f 65/335/125 82/334/125 70/333/125
f 8/338/126 82/337/126 65/336/126
f 71/341/127 82/340/127 8/339/127
f 70/344/128 82/343/128 71/342/128
f 7/345/129 66/346/129 63/347/129
f 26/350/130 83/349/130 38/348/130
f 22/353/131 83/352/131 26/351/131
f 21/356/132 83/355/132 22/354/132
f 72/359/133 83/358/133 21/357/133
f 38/362/134 83/361/134 72/360/134
f 30/122/31 1/120/30 2/121/31
f 2/121/31 31/123/32 30/122/31
f 4/4/1 2/2/1 3/3/1
f 3/3/1 6/6/1 4/4/1
f 19/126/34 3/124/33 1/125/34
f 1/125/34 18/127/35 19/126/34
f 28/130/37 15/128/36 16/129/37
f 16/129/37 30/131/38 28/130/37
f 18/19/5 16/17/5 17/18/5
f 17/18/5 20/21/5 18/19/5
f 15/134/40 12/132/39 13/133/40
f 13/133/40 17/135/41 15/134/40
f 24/138/43 19/136/42 20/137/43
f 20/137/43 23/139/44 24/138/43
f 31/142/46 35/140/45 36/141/46
f 36/141/46 42/143/47 31/142/46
f 46/55/1 36/39/1 37/40/1
f 37/40/1 45/54/1 46/55/1
f 35/38/1 33/36/1 34/37/1
f 34/37/1 37/40/1 35/38/1
f 33/36/1 4/4/1 5/5/1
f 5/5/1 32/35/1 33/36/1
f 25/146/49 5/144/48 6/145/49
f 6/145/49 27/147/50 25/146/49
f 41/150/52 34/148/51 32/149/52
f 32/149/52 39/151/53 41/150/52
f 54/154/55 48/152/54 49/153/55
f 49/153/55 55/155/56 54/154/55
f 62/79/1 49/58/1 50/59/1
f 50/59/1 61/78/1 62/79/1
f 48/57/1 46/55/1 47/56/1
f 47/56/1 50/59/1 48/57/1
f 52/158/58 47/156/57 45/157/58
f 45/157/58 51/159/59 52/158/58
f 68/162/61 64/160/60 65/161/61
f 65/161/61 70/163/62 68/162/61
f 66/166/64 7/164/63 8/165/64
f 8/165/64 65/167/65 66/166/64
f 64/81/66 66/83/1 63/80/66
f 63/80/66 62/79/10 64/81/66
f 7/170/68 63/168/67 61/169/68
f 61/169/68 67/171/69 7/170/68
f 39/174/71 25/172/70 26/173/71
f 26/173/71 38/175/72 39/174/71
f 27/178/74 24/176/73 22/177/74
f 22/177/74 26/179/75 27/178/74
f 23/182/77 13/180/76 21/181/77
f 21/181/77 22/183/78 23/182/77
f 29/48/13 14/49/13 12/185/13
f 12/185/13 28/184/13 29/48/13
f 43/64/9 29/32/9 42/47/9
f 42/47/9 54/63/9 43/64/9
f 41/186/79 40/189/79 53/188/79
f 53/188/79 51/187/79 41/186/79
f 69/88/9 43/64/9 55/65/9
f 55/65/9 68/87/9 69/88/9
f 67/84/19 52/190/19 53/191/19
f 53/191/19 9/86/19 67/84/19
f 9/192/80 10/195/80 71/194/80
f 71/194/80 8/193/80 9/192/80
f 10/196/9 69/88/9 70/89/9
f 70/89/9 71/197/9 10/196/9
f 14/201/81 44/200/81 72/199/81
f 72/199/81 21/198/81 14/201/81
f 40/202/82 38/205/82 72/204/82
f 72/204/82 44/203/82 40/202/82

